<?xml version="1.0" standalone="no"?>
<!DOCTYPE svg PUBLIC "-//W3C//DTD SVG 20010904//EN"
 "http://www.w3.org/TR/2001/REC-SVG-20010904/DTD/svg10.dtd">
<svg version="1.0" xmlns="http://www.w3.org/2000/svg"
 width="96.000000pt" height="96.000000pt" viewBox="0 0 96.000000 96.000000"
 preserveAspectRatio="xMidYMid meet">
<metadata>
Created by potrace 1.11, written by Peter Selinger 2001-2013
</metadata>
<g transform="translate(0.000000,96.000000) scale(0.100000,-0.100000)"
fill="#000000" stroke="none">
<path d="M355 908 c-11 -6 -26 -20 -33 -30 -7 -10 -24 -18 -38 -18 -34 0 -67
-36 -61 -66 2 -13 0 -24 -4 -24 -16 0 -53 -50 -56 -75 -2 -13 3 -39 10 -58 13
-29 12 -37 0 -62 -20 -37 -10 -93 21 -122 14 -13 29 -23 35 -23 5 0 12 -13 16
-30 13 -58 73 -77 126 -39 l29 20 0 -20 c0 -15 -11 -23 -42 -32 -109 -32 -198
-133 -198 -225 l0 -24 320 0 320 0 0 28 c0 44 -44 126 -86 161 -22 17 -65 41
-96 53 -43 15 -58 26 -58 40 0 18 1 18 29 -3 51 -37 131 -3 131 56 0 8 7 15
14 15 8 0 27 16 42 35 23 30 25 41 20 80 -4 24 -11 47 -17 50 -5 4 -2 19 7 37
20 39 11 92 -22 120 -13 12 -24 32 -24 45 0 32 -36 66 -65 61 -17 -4 -27 2
-35 17 -28 52 -120 59 -152 11 -6 -8 -10 -8 -15 0 -22 32 -82 43 -118 22z"/>
</g>
</svg>
